<svg width="400" height="400" viewBox="0 0 400 400" fill="none" xmlns="http://www.w3.org/2000/svg">
<path d="M395.248 194.382L262.465 175.123C258.36 174.499 256.307 169.773 258.717 166.384L300.569 107.178C303.425 103.076 300.123 98.3504 296.018 98.3504C294.947 98.3504 293.876 98.7071 292.806 99.4204L233.553 141.239C232.571 141.953 231.411 142.309 230.34 142.309C227.753 142.309 225.254 140.437 224.808 137.495L205.533 4.81506C205.086 1.60507 202.499 0 200 0C197.501 0 194.914 1.60507 194.467 4.81506L175.192 137.584C174.746 140.526 172.247 142.399 169.66 142.399C168.589 142.399 167.429 142.042 166.447 141.418L108.533 100.847C107.462 100.134 106.392 99.7771 105.321 99.7771C101.305 99.7771 97.9142 104.503 100.77 108.605L141.371 166.474C143.781 169.862 141.729 174.588 137.624 175.212L4.75181 194.472C-1.58394 195.363 -1.58394 204.547 4.75181 205.528L137.624 224.788C141.729 225.412 143.781 230.138 141.371 233.527L101.305 290.86C98.449 294.873 101.84 299.688 105.856 299.688C106.927 299.688 107.997 299.331 109.068 298.618L166.447 258.582C167.429 257.869 168.589 257.602 169.66 257.602C172.247 257.602 174.746 259.474 175.192 262.416L194.467 395.185C194.914 398.395 197.501 400 200 400C202.499 400 205.086 398.395 205.533 395.185L224.808 262.506C225.254 259.563 227.753 257.691 230.34 257.691C231.411 257.691 232.571 258.047 233.553 258.761L292.806 300.491C293.876 301.293 294.947 301.561 296.018 301.561C300.123 301.561 303.425 296.745 300.569 292.733L258.717 233.616C256.307 230.228 258.36 225.502 262.465 224.877L395.248 205.618C401.584 204.548 401.584 195.363 395.248 194.382Z" fill="white"/>
</svg>